<svg width="48" height="50" viewBox="0 0 48 50" fill="none" xmlns="http://www.w3.org/2000/svg">
<path opacity="0.6" d="M45.7596 46.5297L32.94 33.109C36.2098 29.8079 38.2355 25.2571 38.2355 20.2381C38.2355 10.1811 30.1084 2 20.1178 2C10.1271 2 2 10.1811 2 20.2381C2 30.2951 10.1271 38.4762 20.1178 38.4762C24.5031 38.4762 28.5278 36.8982 31.6648 34.2797L44.5155 47.7334C44.6846 47.9114 44.9106 48 45.1375 48C45.3532 48 45.568 47.9192 45.7354 47.7577C46.0788 47.4251 46.0891 46.8753 45.7596 46.5297ZM20.1178 36.7393C11.0787 36.7393 3.7255 29.3372 3.7255 20.2381C3.7255 11.139 11.0787 3.73696 20.1178 3.73696C29.1568 3.73696 36.51 11.139 36.51 20.2381C36.51 29.3372 29.1559 36.7393 20.1178 36.7393Z" fill="white" stroke="white" stroke-width="3"/>
</svg>
