<svg width="48" height="58" viewBox="0 0 48 58" fill="none" xmlns="http://www.w3.org/2000/svg">
<path d="M24.1595 5.94322C24.1595 9.23059 21.4723 11.8945 18.1508 11.8945C14.8292 11.8945 12.1376 9.23059 12.1376 5.94322C12.1376 2.65585 14.8292 0 18.1508 0C21.4723 0 24.1595 2.66023 24.1595 5.94322ZM18.2959 54.1861C10.3294 54.1861 3.85135 47.7747 3.85135 39.8976C3.85135 34.5808 6.82956 29.9896 11.1805 27.5313V23.215C4.61837 25.9642 0 32.4062 0 39.8903C0 49.8735 8.2052 58 18.2967 58C24.9921 58 30.8012 54.3677 33.9872 49.0356L32.0103 44.1381C30.1712 49.9413 24.7571 54.1861 18.2959 54.1861ZM45.1234 45.4937H40.7858C40.7858 45.4937 38.1532 38.0702 37.4208 36.099C36.944 34.7959 35.7113 33.8486 34.2311 33.8486H23.6872V26.5534H33.6888C35.0128 26.5534 36.0849 25.4961 36.0849 24.182C36.0849 22.8679 35.0128 21.7974 33.6888 21.7974H23.6872C23.6872 21.7974 23.1132 13.1429 18.1471 13.1429C14.7474 13.1429 13.584 15.8731 13.584 19.2371V34.513C13.584 37.8813 16.3463 40.6152 19.7416 40.6152C19.8425 40.6152 19.9287 40.5619 20.026 40.5619C20.1195 40.5663 20.2094 40.6152 20.3126 40.6152H33.1701L37.4473 51.1956H45.1198C46.7069 51.1956 48 49.9158 48 48.3406C48.0044 46.7626 46.7106 45.4937 45.1234 45.4937Z" fill="white"/>
</svg>
