<svg width="27" height="47" viewBox="0 0 27 47" fill="none" xmlns="http://www.w3.org/2000/svg">
<path d="M9.59521 31.624C9.59521 29.764 9.84321 28.214 10.3392 26.974C10.8352 25.734 11.4139 24.7627 12.0752 24.06C12.7779 23.3573 13.8112 22.4273 15.1752 21.27C16.7459 19.9473 17.9239 18.7073 18.7092 17.55C19.4945 16.3927 19.8872 14.9667 19.8872 13.272C19.8872 11.288 19.2052 9.65533 17.8412 8.374C16.4772 7.05133 14.8859 6.39 13.0672 6.39C11.1245 6.39 9.47121 6.98933 8.10721 8.188C6.78454 9.38667 5.79254 10.9367 5.13121 12.838L0.357211 10.606C0.811878 9.20066 1.59721 7.77466 2.71321 6.328C3.82921 4.84 5.31721 3.57933 7.17721 2.546C9.03721 1.51266 11.2072 0.995997 13.6872 0.995997C17.2832 1.03733 20.2385 2.09133 22.5532 4.158C24.8679 6.22466 26.0252 9.09733 26.0252 12.776C26.0252 14.636 25.7565 16.248 25.2192 17.612C24.7232 18.9347 24.0619 20.0713 23.2352 21.022C22.4499 21.9313 21.3959 22.9647 20.0732 24.122C18.8745 25.1967 17.9859 26.044 17.4072 26.664C16.8285 27.2427 16.3325 28.0487 15.9192 29.082C15.5472 30.1153 15.3612 31.3967 15.3612 32.926V35.53H9.59521V31.624ZM12.5712 46.752C11.4965 46.752 10.6079 46.442 9.90521 45.822C9.20254 45.202 8.85121 44.396 8.85121 43.404C8.85121 42.4533 9.20254 41.668 9.90521 41.048C10.6492 40.3867 11.5379 40.056 12.5712 40.056C13.6045 40.056 14.4519 40.3867 15.1132 41.048C15.8159 41.668 16.1672 42.4533 16.1672 43.404C16.1672 44.396 15.8365 45.202 15.1752 45.822C14.5139 46.442 13.6459 46.752 12.5712 46.752Z" fill="white"/>
</svg>
