<svg width="105" height="141" viewBox="0 0 105 141" fill="none" xmlns="http://www.w3.org/2000/svg">
<path d="M23.4715 54.3326V48.9041C18.0504 44.3804 14.4364 37.5949 14.4364 29.9045C14.4364 16.3333 25.7301 5.02394 39.283 5.02394C52.8357 5.02394 64.1297 16.3331 64.1297 29.9045C64.1297 35.7852 61.871 41.6661 58.2568 45.7376C60.0638 45.7376 61.4194 46.1901 63.226 46.6424C66.8402 41.6664 68.6473 35.7854 68.6473 29.4522C68.6473 13.1666 55.5462 0.0479736 39.283 0.0479736C23.0198 0.0479736 9.91882 13.1666 9.91882 29.452C9.91882 39.8567 15.3399 48.9041 23.4715 54.3326Z" fill="#445876"/>
<path d="M59.6121 29.4519C59.6121 18.1428 50.577 9.09534 39.283 9.09534C27.989 9.09534 18.9541 18.1428 18.9541 29.4519C18.9541 34.4281 20.7611 38.9519 23.4717 42.1183V29.4519C23.4717 20.857 30.6997 13.6188 39.2832 13.6188C47.8667 13.6188 55.0948 20.8568 55.0948 29.4519V42.1183C57.8048 38.9519 59.6121 34.4281 59.6121 29.4519Z" fill="#445876"/>
<path d="M93.4936 63.38C90.7831 63.38 88.5244 64.2847 86.7172 65.6417C86.7172 59.3085 81.748 54.3325 75.4234 54.3325C72.7129 54.3325 70.0021 55.2373 67.7432 57.0468C65.9367 52.5231 61.8708 49.8088 57.3532 49.8088C54.6427 49.8088 52.3838 50.7136 50.5768 52.0706V29.452C50.5768 23.1188 45.6073 18.1428 39.283 18.1428C32.9586 18.1428 27.9892 23.119 27.9892 29.452V69.7132C18.9541 61.5705 9.0155 55.2373 2.69092 61.5705C-6.34419 70.6179 12.6295 88.2603 27.0857 114.95C37.4762 133.497 51.9324 140.283 66.3885 140.283C87.6209 140.283 104.788 123.093 104.788 101.832V74.6894C104.788 68.3559 99.8182 63.38 93.4936 63.38ZM100.27 84.6416V101.832C100.27 119.474 84.9104 135.76 66.3883 135.76C49.2216 135.76 39.283 126.26 31.1514 113.141C13.5328 83.2846 0.883664 69.7134 5.85309 64.7372C10.8225 59.7612 23.0198 70.6179 32.5065 80.5703V29.452C32.5065 25.833 35.6689 22.6663 39.283 22.6663C42.897 22.6663 46.0594 25.833 46.0594 29.452V76.9509H50.577V61.1178C50.577 57.4988 53.7392 54.3321 57.3534 54.3321C60.9672 54.3321 64.1299 57.4988 64.1299 61.1178V72.4274H68.6475V65.6417C68.6475 62.0227 71.8096 58.856 75.4239 58.856C79.0377 58.856 82.2003 62.0227 82.2003 65.6417V76.9509H86.7179V74.6891C86.7179 71.0702 89.8801 67.9035 93.4943 67.9035C97.1082 67.9035 100.271 71.0702 100.271 74.6891V84.6416H100.27Z" fill="#445876"/>
</svg>
