<svg width="58" height="58" viewBox="0 0 58 58" fill="none" xmlns="http://www.w3.org/2000/svg">
<path fill-rule="evenodd" clip-rule="evenodd" d="M0 29C0 12.9837 12.9837 0 29 0C45.0163 0 58 12.9837 58 29C58 45.0163 45.0163 58 29 58C12.9837 58 0 45.0163 0 29ZM21.151 52.7491C15.0337 50.7284 9.96167 46.4102 6.95675 40.8164H17.8291C18.1864 43.6883 18.7062 46.3284 19.4225 48.6204C19.8808 50.087 20.4495 51.4926 21.151 52.7491ZM21.856 40.8164C22.1843 43.2915 22.6389 45.5215 23.235 47.4291C24.725 52.1971 26.7463 54.0057 29 54.0057C31.2537 54.0057 33.275 52.1971 34.765 47.4291C35.3611 45.5215 35.8157 43.2915 36.144 40.8164H21.856ZM36.5518 36.8221H21.4482C21.2642 34.3646 21.1779 31.7379 21.1779 29C21.1779 26.2621 21.2642 23.6354 21.4482 21.1779H36.5518C36.7358 23.6354 36.8221 26.2621 36.8221 29C36.8221 31.7379 36.7358 34.3646 36.5518 36.8221ZM40.1709 40.8164C39.8136 43.6883 39.2938 46.3284 38.5775 48.6204C38.1192 50.087 37.5505 51.4926 36.849 52.7491C42.9663 50.7284 48.0383 46.4102 51.0432 40.8164H40.1709ZM52.758 36.8221H40.5569C40.7361 34.3145 40.8164 31.6858 40.8164 29C40.8164 26.3142 40.7361 23.6855 40.5569 21.1779H52.758C53.5677 23.6387 54.0057 26.2682 54.0057 29C54.0057 31.7318 53.5677 34.3613 52.758 36.8221ZM51.0432 17.1836C48.0383 11.5898 42.9663 7.27157 36.849 5.25092C37.5505 6.50737 38.1192 7.913 38.5775 9.37956C39.2938 11.6717 39.8136 14.3117 40.1709 17.1836H51.0432ZM36.144 17.1836C35.8157 14.7085 35.3611 12.4785 34.765 10.5709C33.275 5.80293 31.2537 3.99426 29 3.99426C26.7463 3.99426 24.725 5.80293 23.235 10.5709C22.6389 12.4785 22.1843 14.7085 21.856 17.1836H36.144ZM17.8291 17.1836C18.1864 14.3117 18.7062 11.6717 19.4225 9.37956C19.8808 7.913 20.4495 6.50737 21.151 5.25092C15.0337 7.27157 9.96167 11.5898 6.95675 17.1836H17.8291ZM5.24205 21.1779C4.43233 23.6387 3.99426 26.2682 3.99426 29C3.99426 31.7318 4.43233 34.3613 5.24205 36.8221H17.4431C17.2639 34.3145 17.1836 31.6858 17.1836 29C17.1836 26.3142 17.2639 23.6855 17.4431 21.1779H5.24205Z" fill="white"/>
</svg>
