<?xml version="1.0" encoding="utf-8"?>
<!-- Generator: Adobe Illustrator 22.0.1, SVG Export Plug-In . SVG Version: 6.00 Build 0)  -->
<svg version="1.1" id="Layer_1" xmlns="http://www.w3.org/2000/svg" xmlns:xlink="http://www.w3.org/1999/xlink" x="0px" y="0px"
	 viewBox="0 0 12 12" style="enable-background:new 0 0 12 12;" xml:space="preserve">
<style type="text/css">
	.st0{fill:#7D7053;}
</style>
<path class="st0" d="M4.9,11.5c0,0.3,0.3,0.5,0.5,0.5h1.2c0.3,0,0.5-0.2,0.5-0.5V7.2h4.3c0.3,0,0.5-0.3,0.5-0.5V5.4
	c0-0.3-0.2-0.5-0.5-0.5H7.1V0.5C7.1,0.2,6.9,0,6.6,0H5.4C5.1,0,4.9,0.2,4.9,0.5v4.4H0.5C0.3,4.9,0,5.2,0,5.4v1.2
	c0,0.3,0.3,0.5,0.5,0.5h4.3V11.5z"/>
</svg>
