<?xml version="1.0" encoding="utf-8"?>
<!-- Generator: Adobe Illustrator 28.0.0, SVG Export Plug-In . SVG Version: 6.00 Build 0)  -->
<svg version="1.1" id="Layer_1" xmlns="http://www.w3.org/2000/svg" xmlns:xlink="http://www.w3.org/1999/xlink" x="0px" y="0px"
	 viewBox="0 0 1080.6 783.1" style="enable-background:new 0 0 1080.6 783.1;" xml:space="preserve">
<style type="text/css">
	.st0{fill:#1A2B45;}
</style>
<g>
	<g>
		<path class="st0" d="M116.1,0.8c8.5-1,17-0.7,25.5-0.8c266.3,0,532.6,0,798.9,0c13.1-0.2,26.4,0.2,39.2,3.3
			c35.6,8,67.2,31.9,84.7,63.9c10.6,19.1,16.2,40.9,16.1,62.7c0,165.4,0,330.8,0,496.1c-0.1,11,0.2,22-0.1,33
			c-1.4,33-16,65.1-39.9,87.8c-19.8,19-45.7,31.5-72.9,35c-10.3,1.5-20.7,1.1-31,1.1c-269,0-538,0-807,0
			c-33.8,0-67.3-13.9-91.1-37.8C13.5,720.7-0.7,685.9,0,651c0-174,0-348,0-522c0.1-30.1,11.2-59.9,30.7-82.8
			C51.9,20.9,83.2,4.2,116.1,0.8z M68,74.5c-13.6,15.1-21.4,35.3-21.3,55.6c0,130.5-0.1,261,0,391.5c329-0.1,658,0,987,0
			c0-130.2,0-260.3,0-390.5c0.2-13.3-2.9-26.7-8.9-38.5C1014,70.8,993.2,54.4,969.6,49c-13.4-3.3-27.4-1.9-41-2.2
			c-266.3,0-532.7,0-799,0C106.3,46.8,83.4,57.2,68,74.5z M46.7,637.6c0.2,9.2-0.5,18.4,0.9,27.6c2.6,18.2,11.5,35.4,24.8,48.1
			c12.5,12.1,29,20.1,46.2,22.4c7.2,1.1,14.6,0.7,21.9,0.8c270,0,540,0,810,0c19.5,0.1,38.8-7,53.7-19.6
			c14.9-12.5,25.2-30.4,28.5-49.6c1.8-9.8,1-19.7,1.2-29.5C704.8,637.5,375.8,637.6,46.7,637.6z"/>
	</g>
	<g>
		<path class="st0" d="M669,121.9c13.9-2.2,28.5,0.2,40.8,7c13.6,7.3,24.3,19.7,29.6,34.1c5.6,15.1,5.3,32.3-1,47.1
			c-5.7,13.8-16.5,25.5-29.8,32.3c-12,6.3-25.9,8.5-39.2,6.4c-16.5-2.4-31.9-11.6-41.8-25c-14.5-19.2-16.7-46.8-5.5-68.1
			C631.2,137.8,649.2,124.8,669,121.9z M671.9,163.6c-10.1,3.2-17.2,13.8-15.9,24.3c1.1,12.2,13.1,22.1,25.4,20.6
			c13-1.1,23-14.8,20.2-27.5C699.3,168,684.5,159,671.9,163.6z"/>
	</g>
	<path class="st0" d="M821.9,126.6c2.5-0.8,5.1-0.5,7.6-0.6c7,0.1,14.1-0.2,21.1,0.1c5.6,0.3,9.7,6.8,7,11.9
		c-54.6,105-109.3,210-163.9,315c-1.6,3.5-5.2,6.1-9.1,6c-7.4,0-14.7,0-22.1,0c-3.6,0.2-7.4-1.7-8.9-5c-1.3-2.6-0.9-5.7,0.5-8.1
		c53.7-103.7,107.3-207.4,161-311.2C816.7,131.6,818.2,127.7,821.9,126.6z"/>
	<path class="st0" d="M97,213.5c103.7,0,207.4,0,311,0c0,13.3,0,26.7,0,40c-103.7,0-207.3,0-311,0C97,240.2,97,226.9,97,213.5z"/>
	<path class="st0" d="M97,321.1c144-0.1,288-0.1,432.1,0c0,13.3,0,26.6,0,39.9c-144,0-288,0.1-432.1,0C97,347.7,97,334.4,97,321.1z"
		/>
	<g>
		<path class="st0" d="M827,335.8c14.8-2,30.2,1.1,42.9,9c11.9,7.2,21.3,18.5,26.3,31.5c5.9,15.3,5.8,32.8-0.5,48
			c-5.1,12.5-14.2,23.2-25.7,30.2c-12.3,7.6-27.2,10.9-41.5,9.2c-16.4-1.8-31.9-10.3-42.3-23c-9.3-11.3-14.6-25.9-14.6-40.5
			c-0.1-13.3,4-26.6,11.6-37.4C793.2,348.1,809.5,338.1,827,335.8z M829,377.6c-10,2.9-17.3,13-16.5,23.5
			c0.5,11.5,10.5,21.7,22.1,22.1c13.4,0.9,25.7-11.6,24.5-25C858.3,383.9,842.6,372.9,829,377.6z"/>
	</g>
</g>
</svg>
