<?xml version="1.0" encoding="utf-8"?>
<!-- Generator: Adobe Illustrator 25.4.1, SVG Export Plug-In . SVG Version: 6.00 Build 0)  -->
<svg version="1.1" id="Layer_1" xmlns="http://www.w3.org/2000/svg" xmlns:xlink="http://www.w3.org/1999/xlink" x="0px" y="0px"
	 viewBox="0 0 390 354" style="enable-background:new 0 0 390 354;" xml:space="preserve">
<style type="text/css">
	.st0{fill:#FFFFFF;}
	.st1{fill:#C2C2C2;}
	.st2{fill:#BBBBBB;}
	.st3{fill:#B6B6B6;}
	.st4{fill:#CDCDCD;}
	.st5{fill:#B4B5B4;}
	.st6{fill:#B0B0AF;}
	.st7{fill:#B9B9B9;}
	.st8{fill:#A0A0A0;}
	.st9{fill:#B3B4B3;}
	.st10{fill:#A2A3A2;}
	.st11{fill:#AEAFAE;}
	.st12{fill:#A9AAA9;}
</style>
<g>
	<path class="st0" d="M389.6,79.1c-1-6-6-10.5-11.6-12.5C303.5,44.7,228.9,22.9,154.4,1c-6.1-2.2-13.2-0.8-17.9,3.7
		c-4.5,4.5-5.5,11-7.3,16.8c-9.8,33.4-19.5,66.9-29.3,100.3c0,0,0,0,0,0l-0.4,1.3C87,165.5,74.7,207.9,62.3,250.3
		c-1.4,4.6-3.2,9.4-1.9,14.3c1.3,6.2,6.3,11.3,12.3,12.9c43.2,12.6,86.4,25.4,129.7,38c30.8,9,61.6,18,92.4,27.1
		c5.3,1.9,11.4,1.7,16.2-1.4c5.6-3,7.5-9.5,9-15.3c22-75.5,44.1-150.9,66.1-226.4C387.9,92.8,391,86.1,389.6,79.1z M376.5,87.1
		c-3.2,10.6-6.2,21.4-9.4,32c-5.7,19.4-11.3,38.8-17,58.2c-3.3,11.3-6.6,22.5-9.8,33.7c-3.3,10.4-6.1,21-9.3,31.4
		c-2.2,7.6-4.5,15.2-6.6,22.9l-0.2-0.2c-5.8,20.7-12,41.4-18,62c-0.5,3-3.8,4.8-6.6,3.5c-74.4-21.8-148.8-43.7-223.2-65.5
		c-2.8-0.5-4.5-3.5-3.4-6.2c8-27.5,16.2-54.9,24.1-82.5c6.3-21.8,12.8-43.5,19.1-65.3c3.2-11.3,6.6-22.6,9.9-33.9
		c3.3-10.7,6-21.6,9.7-32.1c-0.2-1.1,0.3-2.2,0.6-3.2c2.7-8.6,5-17.2,7.6-25.8c0.6-2.8,3.8-4.3,6.4-3.1
		c74.1,21.7,148.1,43.5,222.2,65.2c1.6,0.5,3.5,1.1,4.3,2.8C378,83,376.9,85.1,376.5,87.1z"/>
	<path class="st0" d="M133.8,119.4c-6.1,21.2-12.3,42.4-18.5,63.6c-2.9,9.5-5.6,19.1-8.4,28.6c-0.9,1.9,0.4,3.8,2.4,4
		c63.5,18.6,127,37.2,190.5,55.9c1.4,0.2,3.5,1.3,4.5-0.3c1.2-1.9,1.6-4.2,2.2-6.3c2.5-9,5.3-18,7.9-27c3.3-11.5,6.7-22.9,10-34.4
		c3.3-11.5,6.8-23,10.2-34.5c5-17.4,10.3-34.7,15.2-52.2c2.2-8,4.8-15.8,6.9-23.8c0.8-2.2-1.4-3.3-3.1-3.7
		c-61.2-18-122.4-35.9-183.6-53.9c-3.1-0.8-6.1-2.1-9.3-2.3c-1.8-0.1-2.1,2.1-2.7,3.4c-1.4,4.6-2.6,9.2-4.1,13.7
		c-3.2,11.2-6.5,22.4-9.7,33.5C140.7,95.6,137.3,107.5,133.8,119.4z M326.6,176.8c-1.6,6.4-3.6,12.6-5.4,18.9
		c-4.4-6.7-8-13.9-11.7-21C315.2,172,321,175.4,326.6,176.8z M315.7,197.4c0.7,1.7,2.4,2.4,4,3.1c-6.2,21.9-12.8,43.6-19,65.5
		c-43.2-12.3-86.2-25.4-129.4-37.7c0-4.9,5.8-5.2,9.4-5.9c19.3-2.1,38.9-0.1,58.1-3.6c3.8-1,8.8-1.5,10.6-5.5
		c1.3-4.9-2.9-8.6-5.8-11.8c-4.2-4.8-10.1-8.6-12.1-14.9c12.5-2.9,25.6,0.1,38.1-2.5c5.9-1,8.9-7.6,15-8c6.3-0.6,12.7-0.7,19-0.8
		C307.6,182.6,311.6,190,315.7,197.4z M278,127.8c1.5,1.4,3.4-0.1,5-0.4c1.9,6.7,3.4,13.5,5.5,20c3.7,7.3,7.8,14.4,11.7,21.6
		c-9.2,0-18.6-1-27.8,0.4c-1-1.4-2-2.8-3-4.2c1.9-7.8,4.6-15.3,6.5-23.1c-0.3-7.2-2.2-14.3-2.3-21.6
		C275.1,123,276.2,125.6,278,127.8z M214.2,92.8c3.3-0.2,5.6-2.5,7.6-4.9c-0.3,8-1.3,16-2.2,24c-4.8-2.4-7.8-7-11.2-10.9
		C210.2,98.2,212.1,95.4,214.2,92.8z M200.6,100.5c3.2,3.4,6.2,6.9,9.2,10.5c3.2,3.8,7.7,6.1,11.8,8.8c1-0.8,2.5-1.4,2.5-2.9
		c1.5-8.9,2.2-18,2.9-27c4.2,7.6,8.6,15,14,21.9c1.9,2.4,4.3-0.5,5.9-1.7c0.5,1.7,0.9,3.4,1.4,5.2c-2.7,2.6-5.2,5.5-8.1,8
		c-2.7,1.2-5.8,1.1-8.5,2.2c-7.2,3-13.9,7.1-21.1,10c-5.2-0.3-10.3-1.2-15.5-1.9c0.1-4.6-1.1-9.4,0.9-13.7
		C199,113.7,199.4,107,200.6,100.5z M168.3,109.9c3.3-2.9,7.6-4,11.6-5.5c5.2-1.9,10.4-4,15.7-5.7c-0.8,4.7-1.4,9.4-2.5,14.1
		c-1,4.2-3.7,8-3.3,12.4c0.2,4-0.1,8.2,0.7,12.2c3,2.5,7.5,1.4,11.1,2.6c-3.4,2.1-7.3,3.4-10.7,5.6c-1.6,0.9-1.1,3.2,0.1,4.3
		c1.5,0.7,3-0.1,4.4-0.7c12.4-6,24.7-12.1,37.1-18.1c4-2.1,9.4-0.9,12.5-4.6c3.5-3.5,6.9-7.1,10.4-10.7c3-3.2,7.4-4.4,11.3-6.1
		c1.2,9.8,2.7,19.6,3.9,29.4c0.5,3.5-1,6.8-1.9,10c-1.4,4.9-3,9.8-4.3,14.8c-0.9,2.7,1.6,4.8,2.6,7.1c-4.5,2-9.2,3.7-14.2,3.8
		c-12,0.4-24-0.9-36.1-0.8c-4.2,0.2-8.8,0.2-12.3,2.9c-2.2,1.7-3,4.6-2.3,7.2c1.4,5.8,6.1,10,7.5,15.7c-5.1,1.7-10.6,2-16,2.4
		c-22.3,1.1-44.7-1.3-67-0.6c-3.9,0.1-7.7,0.9-11.5,1.3c8-27.1,15.9-54.1,23.7-81.2c12.1,3,23.8,7.2,35.9,10.2
		c-7.6-3-15.2-5.9-22.7-8.9C157.1,118.4,162.9,114.4,168.3,109.9z"/>
	<path class="st1" d="M372.7,78.3c-74.1-21.7-148.1-43.5-222.2-65.2c-2.6-1.2-5.8,0.3-6.4,3.1c-2.6,8.6-5,17.2-7.6,25.8
		c-0.2,1.1-0.8,2.1-0.6,3.2c0.8,2,0.8,4.2,0.2,6.2c4.7,1.9,9.9,1.9,14.9,1.8c0.8-1.8,1.5-3.6,2.3-5.4c0.2,0.6,0.6,1.8,0.8,2.3
		c1.5-4.5,2.7-9.2,4.1-13.7c0.6-1.3,0.8-3.5,2.7-3.4c3.2,0.2,6.2,1.5,9.3,2.3c61.2,18,122.4,35.9,183.6,53.9
		c1.7,0.4,3.9,1.6,3.1,3.7c-2.1,8-4.7,15.8-6.9,23.8c5.5,0.2,11,0.4,16.4-0.4c0.2,0.7,0.7,2,0.9,2.7c3.2-10.6,6.2-21.4,9.4-32
		c0.4-1.9,1.5-4,0.5-6C376.2,79.4,374.3,78.8,372.7,78.3z"/>
	<path class="st2" d="M154,50.2c-0.2-0.6-0.6-1.8-0.8-2.3c-0.8,1.8-1.6,3.6-2.3,5.4c-5,0.1-10.1,0.1-14.9-1.8
		c0.6-2.1,0.6-4.2-0.2-6.2c-3.7,10.5-6.4,21.4-9.7,32.1c5.9,2.6,12.6,2.7,18.1,6.4C147.5,72.6,150.8,61.4,154,50.2z"/>
	<path class="st3" d="M116.1,116.7c4.3,2.7,9.1,4.5,14.1,5.1c1-1.9,2-3.8,3.1-5.6c0.1,0.8,0.4,2.4,0.5,3.2
		c3.5-11.9,6.9-23.8,10.4-35.7c-5.4-3.7-12.2-3.8-18.1-6.4c-3.3,11.3-6.7,22.6-9.9,33.9c1.3,0.7,2.5,1.4,3.8,2.1
		C118.6,114.3,117.3,115.5,116.1,116.7z"/>
	<path class="st4" d="M219.6,111.9c1-8,1.9-15.9,2.2-24c-2,2.4-4.3,4.6-7.6,4.9c-2.1,2.6-4,5.4-5.8,8.2
		C211.8,104.9,214.8,109.5,219.6,111.9z"/>
	<path class="st4" d="M138.6,121.8c-7.8,27.1-15.7,54.2-23.7,81.2c3.8-0.4,7.7-1.2,11.5-1.3c22.3-0.7,44.7,1.7,67,0.6
		c5.4-0.4,10.8-0.7,16-2.4c-1.4-5.7-6.2-9.9-7.5-15.7c-0.6-2.6,0.1-5.6,2.3-7.2c3.5-2.7,8.1-2.7,12.3-2.9c12-0.1,24,1.2,36.1,0.8
		c5-0.1,9.7-1.8,14.2-3.8c-1-2.3-3.5-4.4-2.6-7.1c1.4-5,2.9-9.9,4.3-14.8c0.9-3.3,2.4-6.6,1.9-10c-1.2-9.8-2.7-19.6-3.9-29.4
		c-3.9,1.6-8.3,2.8-11.3,6.1c-3.5,3.6-6.9,7.1-10.4,10.7c-3.1,3.7-8.5,2.4-12.5,4.6c-12.4,6-24.7,12.1-37.1,18.1
		c-1.4,0.6-2.9,1.4-4.4,0.7c-1.2-1-1.8-3.3-0.1-4.3c3.4-2.2,7.3-3.4,10.7-5.6c-3.6-1.2-8.1-0.2-11.1-2.6c-0.8-4-0.5-8.1-0.7-12.2
		c-0.4-4.5,2.3-8.3,3.3-12.4c1.1-4.6,1.7-9.4,2.5-14.1c-5.3,1.7-10.5,3.8-15.7,5.7c-4,1.5-8.3,2.6-11.6,5.5
		c-5.4,4.5-11.2,8.5-16.5,13.1c7.5,3.1,15.1,5.9,22.7,8.9C162.4,129,150.7,124.8,138.6,121.8z"/>
	<path class="st4" d="M326.6,176.8c-5.6-1.3-11.3-4.8-17.1-2.1c3.7,7.1,7.3,14.3,11.7,21C322.9,189.4,325,183.1,326.6,176.8z"/>
	<path class="st4" d="M269.6,184c-12.6,2.6-25.6-0.3-38.1,2.5c2,6.3,7.9,10.1,12.1,14.9c2.9,3.3,7.1,7,5.8,11.8
		c-1.8,4-6.9,4.5-10.6,5.5c-19.2,3.6-38.8,1.5-58.1,3.6c-3.6,0.7-9.4,1-9.4,5.9c43.2,12.4,86.2,25.5,129.4,37.7
		c6.2-21.9,12.8-43.6,19-65.5c-1.5-0.8-3.2-1.5-4-3.1c-4.1-7.4-8.1-14.9-12.2-22.3c-6.3,0.1-12.7,0.2-19,0.8
		C278.5,176.4,275.5,183,269.6,184z"/>
	<path class="st5" d="M195.2,133.5c5.1,0.8,10.3,1.6,15.5,1.9c7.2-2.9,14-6.9,21.1-10c2.8-1.1,5.8-1.1,8.5-2.2
		c2.9-2.4,5.3-5.4,8.1-8c-0.5-1.7-1-3.5-1.4-5.2c-1.6,1.1-4.1,4-5.9,1.7c-5.3-6.8-9.8-14.3-14-21.9c-0.8,9-1.5,18.1-2.9,27
		c-0.1,1.5-1.6,2-2.5,2.9c-4.1-2.7-8.6-5-11.8-8.8c-3-3.5-6-7.1-9.2-10.5c-1.2,6.5-1.7,13.3-4.5,19.4
		C194.1,124.1,195.4,129,195.2,133.5z"/>
	<path class="st5" d="M269.5,165.3c1,1.4,2,2.8,3,4.2c9.2-1.4,18.5-0.4,27.8-0.4c-3.9-7.2-8-14.3-11.7-21.6
		c-2.2-6.6-3.7-13.4-5.5-20c-1.6,0.3-3.5,1.8-5,0.4c-1.8-2.2-2.8-4.8-4.3-7.2c0.1,7.3,2.1,14.4,2.3,21.6
		C274.1,149.9,271.4,157.5,269.5,165.3z"/>
	<path class="st6" d="M104.9,177c0.1,0.9,0.3,1.7,0.4,2.6c3.4,1.1,6.8,2,10,3.4c6.2-21.2,12.4-42.4,18.5-63.6
		c-0.1-0.8-0.4-2.4-0.5-3.2c-1,1.9-2,3.7-3.1,5.6c-5-0.6-9.8-2.4-14.1-5.1c1.2-1.3,2.5-2.4,3.9-3.4c-1.3-0.7-2.5-1.4-3.8-2.1
		c-6.3,21.8-12.8,43.5-19.1,65.3C99.4,178.8,102.3,178.2,104.9,177z"/>
	<path class="st7" d="M349.8,116.9c-5,17.4-10.2,34.8-15.2,52.2c4.3,3.3,9.4,5.2,14.7,6c0.2,0.6,0.6,1.7,0.8,2.2
		c5.7-19.4,11.3-38.8,17-58.2c-0.2-0.7-0.7-2-0.9-2.7C360.8,117.3,355.2,117,349.8,116.9z"/>
	<path class="st8" d="M60.4,264.5c-1.3-4.8,0.6-9.7,1.9-14.3c12.4-42.4,24.7-84.8,37.2-127.1l0.4-1.3c0,0,0,0,0,0
		c-28.5,8.3-57,16.7-85.6,25.1C4,149.7-2.4,161.6,0.9,171.8C17.1,227.4,33.5,283,49.7,338.7c1.2,4.4,3.7,8.6,7.5,11.3
		c5.2,3.9,12.2,5,18.3,3c39.5-11.6,79-23.2,118.4-34.8c2.8-0.9,5.8-1.4,8.4-2.8c-43.3-12.6-86.4-25.3-129.7-38
		C66.6,275.8,61.7,270.7,60.4,264.5z"/>
	<path class="st9" d="M334.5,169c-3.4,11.5-6.8,23-10.2,34.5c2.3,1.3,4.7,2.3,7.3,2.9c3.1,0.9,7,1.3,8.7,4.5
		c3.2-11.3,6.5-22.5,9.8-33.7c-0.2-0.6-0.6-1.7-0.8-2.2C344,174.2,338.8,172.4,334.5,169z"/>
	<path class="st10" d="M321.2,269.6c-5-1.2-9.9-2.8-14.8-4.7c-0.6,2.1-1.1,4.4-2.2,6.3c-1,1.6-3.1,0.5-4.5,0.3
		c-63.5-18.7-127-37.3-190.5-55.9c-2-0.3-3.3-2.1-2.4-4c2.7-9.6,5.5-19.1,8.4-28.6c-3.2-1.5-6.6-2.4-10-3.4
		c-0.1-0.9-0.3-1.7-0.4-2.6c-2.6,1.2-5.5,1.8-7.8-0.4C89.2,204.1,81,231.5,73,259c-1.1,2.6,0.7,5.7,3.4,6.2
		c74.4,21.8,148.8,43.6,223.2,65.5c2.8,1.3,6.1-0.5,6.6-3.5c6-20.7,12.2-41.3,18-62c-0.3-0.3-0.9-0.9-1.2-1.2
		C322.4,265.8,321.8,267.7,321.2,269.6z"/>
	<path class="st11" d="M331.6,206.5c-2.6-0.6-5-1.6-7.3-2.9c-3.3,11.5-6.7,22.9-10,34.4c4.9,0.9,9.8,2.3,14.4,4.4
		c0.3-1,0.7-1.9,1-2.9c0.4,1,0.8,2,1.3,3c3.2-10.4,6-21,9.3-31.4C338.6,207.8,334.8,207.4,331.6,206.5z"/>
	<path class="st12" d="M328.7,242.3c-4.6-2.1-9.5-3.5-14.4-4.4c-2.6,9-5.3,18-7.9,27c4.8,1.8,9.7,3.4,14.8,4.7
		c0.6-1.9,1.2-3.8,1.8-5.7c0.3,0.3,0.9,0.9,1.2,1.2l0.2,0.2c2.1-7.7,4.4-15.3,6.6-22.9c-0.4-1-0.9-2-1.3-3
		C329.4,240.4,329.1,241.3,328.7,242.3z"/>
</g>
</svg>
